<svg viewBox="0 0 24 16" xmlns="http://www.w3.org/2000/svg" shape-rendering="crispEdges" aria-hidden="true">
  <rect x="1" y="2" width="2" height="2" fill="white" opacity="0.90"/>
  <rect x="1" y="7" width="2" height="2" fill="white" opacity="0.90"/>
  <rect x="1" y="12" width="2" height="2" fill="white" opacity="0.70"/>
  <rect x="10" y="1" width="2" height="2" fill="white" opacity="0.90"/>
  <rect x="10" y="5" width="2" height="2" fill="white" opacity="0.90"/>
  <rect x="10" y="9" width="2" height="2" fill="white" opacity="0.90"/>
  <rect x="10" y="13" width="2" height="2" fill="white" opacity="0.70"/>
  <rect x="21" y="4" width="2" height="2" fill="white" opacity="0.90"/>
  <rect x="21" y="10" width="2" height="2" fill="white" opacity="0.90"/>
  <line x1="3" y1="3" x2="10" y2="2" stroke="white" stroke-width="0.5" opacity="0.35"/>
  <line x1="3" y1="3" x2="10" y2="6" stroke="white" stroke-width="0.5" opacity="0.35"/>
  <line x1="3" y1="8" x2="10" y2="2" stroke="white" stroke-width="0.5" opacity="0.20"/>
  <line x1="3" y1="8" x2="10" y2="6" stroke="white" stroke-width="0.5" opacity="0.35"/>
  <line x1="3" y1="8" x2="10" y2="10" stroke="white" stroke-width="0.5" opacity="0.35"/>
  <line x1="3" y1="13" x2="10" y2="10" stroke="white" stroke-width="0.5" opacity="0.25"/>
  <line x1="3" y1="13" x2="10" y2="14" stroke="white" stroke-width="0.5" opacity="0.35"/>
  <line x1="12" y1="2" x2="21" y2="5" stroke="white" stroke-width="0.5" opacity="0.35"/>
  <line x1="12" y1="6" x2="21" y2="5" stroke="white" stroke-width="0.5" opacity="0.35"/>
  <line x1="12" y1="10" x2="21" y2="5" stroke="white" stroke-width="0.5" opacity="0.20"/>
  <line x1="12" y1="10" x2="21" y2="11" stroke="white" stroke-width="0.5" opacity="0.35"/>
  <line x1="12" y1="14" x2="21" y2="11" stroke="white" stroke-width="0.5" opacity="0.25"/>
</svg>
